<svg xmlns="http://www.w3.org/2000/svg" xmlns:xlink="http://www.w3.org/1999/xlink" version="1.1" width="1000" height="1000" viewBox="0 0 1000 1000" xml:space="preserve">
<desc>Created with Fabric.js 3.5.0</desc>
<defs>
</defs>
<rect x="0" y="0" width="100%" height="100%" fill="#ffffff"/>
<g transform="matrix(2.427 0 0 2.427 499.9994 498.3397)" id="937349">
<g style="">
		<g transform="matrix(0.8001 0 0 0.8001 -0.305 -0.006)" id="598669">
<path style="stroke: none; stroke-width: 1; stroke-dasharray: none; stroke-linecap: butt; stroke-dashoffset: 0; stroke-linejoin: miter; stroke-miterlimit: 4; is-custom-font: none; font-file-url: none; fill: rgb(0,0,0); fill-rule: nonzero; opacity: 1;" vector-effect="non-scaling-stroke" transform=" translate(-224, -256)" d="M 224 0 c -17.7 0 -32 14.3 -32 32 V 49.9 C 119.5 61.4 64 124.2 64 200 v 33.4 c 0 45.4 -15.5 89.5 -43.8 124.9 L 5.3 377 c -5.8 7.2 -6.9 17.1 -2.9 25.4 S 14.8 416 24 416 H 424 c 9.2 0 17.6 -5.3 21.6 -13.6 s 2.9 -18.2 -2.9 -25.4 l -14.9 -18.6 C 399.5 322.9 384 278.8 384 233.4 V 200 c 0 -75.8 -55.5 -138.6 -128 -150.1 V 32 c 0 -17.7 -14.3 -32 -32 -32 z m 0 96 h 8 c 57.4 0 104 46.6 104 104 v 33.4 c 0 47.9 13.9 94.6 39.7 134.6 H 72.3 C 98.1 328 112 281.3 112 233.4 V 200 c 0 -57.4 46.6 -104 104 -104 h 8 z m 64 352 H 224 H 160 c 0 17 6.7 33.3 18.7 45.3 s 28.3 18.7 45.3 18.7 s 33.3 -6.7 45.3 -18.7 s 18.7 -28.3 18.7 -45.3 z" stroke-linecap="round"/>
</g>
		<g transform="matrix(0.6635 0 0 0.6635 134.7217 -160.0454)" id="428833">
<path style="stroke: none; stroke-width: 1; stroke-dasharray: none; stroke-linecap: butt; stroke-dashoffset: 0; stroke-linejoin: miter; stroke-miterlimit: 4; is-custom-font: none; font-file-url: none; fill: rgb(255,51,51); fill-rule: nonzero; opacity: 1;" vector-effect="non-scaling-stroke" transform=" translate(-67.5, -67.5)" d="M 67.5 135 C 104.779 135 135 104.779 135 67.5 C 135 30.2208 104.779 0 67.5 0 C 30.2208 0 0 30.2208 0 67.5 C 0 104.779 30.2208 135 67.5 135 Z" stroke-linecap="round"/>
</g>
</g>
</g>
</svg>